<svg width="43" height="38" viewBox="0 0 43 38" fill="none" xmlns="http://www.w3.org/2000/svg">
    <!-- Background shape -->
    <path d="M37.7432 36.6943H5.74707L0.745117 5.11719L42.1211 0.728516L37.7432 36.6943Z" fill="black" stroke="#ECECEC" stroke-width="1.29372"/>

    <!-- Arrow overlay (centered) -->
    <g transform="translate(10.5, 9.5)">
        <path fill-rule="evenodd" clip-rule="evenodd" d="M0.0380823 5.67124C0.0184926 5.73706 0.00564184 5.80617 0.00156717 5.87748L0.00125374 5.88516L0.000783585 5.88798V5.89002L0.000470151 5.89675V5.90193L0 5.90804V5.92011C0 5.92371 0 5.92763 0 5.93123V5.95411L0.000470151 5.96054V5.96587L0.000783585 5.97261V5.97464L0.00125374 5.97746L0.00156717 5.98467V5.98499C0.00564184 6.05614 0.0184926 6.12509 0.0380823 6.19123C0.0794556 6.32773 0.154053 6.45639 0.262344 6.56437L5.29782 11.6002C5.6473 11.9496 6.21493 11.9496 6.56441 11.6002C6.91389 11.2507 6.91389 10.6831 6.56441 10.3336L3.05755 6.82671H14.3761C15.6708 6.82671 16.9124 7.34106 17.828 8.2566C18.7435 9.17214 19.2579 10.4138 19.2579 11.7085C19.2579 14.4046 17.0721 16.5902 14.3761 16.5902C11.4875 16.5902 10.5002 16.5902 10.5002 16.5902C10.0059 16.5902 9.60472 16.9914 9.60472 17.4857C9.60472 17.98 10.0059 18.3816 10.5002 18.3816C10.5002 18.3816 11.4875 18.3816 14.3761 18.3816C18.0615 18.3816 21.0488 15.394 21.0488 11.7085C21.0488 9.9388 20.3458 8.2414 19.0946 6.99001C17.8429 5.73878 16.1458 5.03575 14.3761 5.03575H3.05755L6.56441 1.52858C6.91389 1.1791 6.91389 0.611784 6.56441 0.262462C6.21493 -0.0874873 5.6473 -0.0874873 5.29782 0.262462L0.262344 5.29778C0.154053 5.40607 0.0794556 5.53458 0.0380823 5.67124Z" fill="white"/>
    </g>
</svg>
