
<svg width="43" height="38" viewBox="0 0 43 38" fill="none" xmlns="http://www.w3.org/2000/svg">
    <path d="M0 4.54572L42.8616 0L38.3157 37.3414H5.19531L0 4.54572Z" fill="#ECECEC"/>
    <g transform="translate(12, 9.5) scale(1, -1) translate(0, -18.2086)">
        <path d="M15.4231 9.91113C16.0546 9.91132 16.5374 10.4078 16.5376 11.0256C16.5376 11.293 16.4533 11.5342 16.2962 11.7344L16.2243 11.8176L16.2192 11.8237L10.3037 17.8614C10.0904 18.0842 9.80751 18.2086 9.49944 18.2086C9.18299 18.2085 8.91213 18.0763 8.69928 17.8635L8.6962 17.8604L2.78792 11.8237C2.572 11.6062 2.46231 11.3312 2.46231 11.0256C2.46249 10.4077 2.94512 9.91113 3.57679 9.91113C3.89088 9.91116 4.15952 10.0352 4.36052 10.2244L4.36668 10.2296L4.37284 10.2367L9.49944 15.4774L14.626 10.2367L14.6322 10.2296L14.6394 10.2244C14.8422 10.0336 15.119 9.91113 15.4231 9.91113Z" fill="#1A1A1A"/>
        <rect x="10.6238" y="0.791505" width="15.2933" height="2.248" rx="1.124" transform="rotate(90 10.6238 0.791505)" fill="#1A1A1A"/>
    </g>
</svg>
