<svg width="43" height="38" viewBox="0 0 43 38" fill="none" xmlns="http://www.w3.org/2000/svg">

    <!-- First rect converted to path (centered) -->
    <path d="M12.58816 11.89502C12.18894 11.89502 11.86572 12.21824 11.86572 12.61746V12.61746V13.33989V13.33989C11.86572 13.73911 12.18894 14.06233 12.58816 14.06233H30.1886C30.5878 14.06233 30.911 13.73911 30.911 13.33989V13.33989V12.61746V12.61746C30.911 12.21824 30.5878 11.89502 30.1886 11.89502H12.58816Z" fill="white"/>

    <!-- First circle converted to path (centered) -->
    <path d="M24.7691 12.61757C24.7691 13.68712 23.9027 14.5535 22.8331 14.5535C21.7636 14.5535 20.89717 13.68712 20.89717 12.61757C20.89717 11.54801 21.7636 10.68164 22.8331 10.68164C23.9027 10.68164 24.7691 11.54801 24.7691 12.61757Z" fill="white"/>

    <!-- Second rect converted to path (centered) -->
    <path d="M12.58816 18.16553C12.18894 18.16553 11.86572 18.48875 11.86572 18.888V18.888V19.6104V19.6104C11.86572 20.0096 12.18894 20.3328 12.58816 20.3328H30.1886C30.5878 20.3328 30.911 20.0096 30.911 19.6104V19.6104V18.888V18.888C30.911 18.48875 30.5878 18.16553 30.1886 18.16553H12.58816Z" fill="white"/>

    <!-- Second circle converted to path (centered) -->
    <path d="M17.70365 18.8881C17.70365 19.95765 16.83728 20.824 15.76772 20.824C14.69817 20.824 13.83179 19.95765 13.83179 18.8881C13.83179 17.81851 14.69817 16.95214 15.76772 16.95214C16.83728 16.95214 17.70365 17.81851 17.70365 18.8881Z" fill="white"/>

    <!-- Third rect converted to path (centered) -->
    <path d="M12.58816 24.4365C12.18894 24.4365 11.86572 24.7597 11.86572 25.1589V25.1589V25.8814V25.8814C11.86572 26.2806 12.18894 26.6038 12.58816 26.6038H30.1886C30.5878 26.6038 30.911 26.2806 30.911 25.8814V25.8814V25.1589V25.1589C30.911 24.7597 30.5878 24.4365 30.1886 24.4365H12.58816Z" fill="white"/>

    <!-- Third circle converted to path (centered) -->
    <path d="M28.2417 25.1591C28.2417 26.2286 27.3753 27.095 26.3058 27.095C25.2362 27.095 24.3698 26.2286 24.3698 25.1591C24.3698 24.0895 25.2362 23.2231 26.3058 23.2231C27.3753 23.2231 28.2417 24.0895 28.2417 25.1591Z" fill="white"/>
</svg>
